<?xml version="1.0" encoding="UTF-8" standalone="no"?>
<!DOCTYPE svg PUBLIC "-//W3C//DTD SVG 1.1//EN" "http://www.w3.org/Graphics/SVG/1.1/DTD/svg11.dtd">
<svg width="100%" height="100%" viewBox="0 0 5524 4147" version="1.1" xmlns="http://www.w3.org/2000/svg" xmlns:xlink="http://www.w3.org/1999/xlink" xml:space="preserve" xmlns:serif="http://www.serif.com/" style="fill-rule:evenodd;clip-rule:evenodd;stroke-linecap:round;stroke-linejoin:round;stroke-miterlimit:1.5;">
    <g transform="matrix(1,0,0,1,-3983.88,-2809.39)">
        <g id="Artboard4" transform="matrix(1.2367,0,0,0.772912,819.159,585.338)">
            <rect x="2559.01" y="2877.49" width="4466.3" height="5364.5" style="fill:none;"/>
            <clipPath id="_clip1">
                <rect x="2559.01" y="2877.49" width="4466.3" height="5364.5"/>
            </clipPath>
            <g clip-path="url(#_clip1)">
                <g transform="matrix(3.15553,0,0,0.719226,2238.72,6867.91)">
                    <g transform="matrix(1.19227,0,0,8.36982,-1242.3,-5237.13)">
                        <path d="M1203.3,641.463C1184.37,635.339 1169.05,630.065 1155.94,627.461C1142.82,624.853 1131.82,624.882 1121.81,628.812C1114.51,631.68 1107.71,636.666 1101.02,644.378C1091.7,655.11 1082.54,671.333 1072.21,694.821C1071.84,695.657 1071.81,696.606 1072.14,697.458C1072.48,698.31 1073.13,698.995 1073.97,699.361L1122.78,720.442C1123.61,720.802 1124.55,720.802 1125.37,720.442L1174.01,698.97C1175.54,698.306 1176.23,696.531 1175.57,695.009C1174.9,693.488 1173.13,692.791 1171.61,693.455C1171.61,693.455 1131.87,710.591 1124.09,713.942C1124.09,713.942 1079.9,694.466 1079.9,694.466C1087.59,677.56 1094.6,664.746 1101.53,655.235C1109.01,644.972 1116.33,638.7 1124.44,635.415C1133.3,631.827 1143.04,631.829 1154.77,633.82C1167.76,636.025 1183.07,640.588 1201.94,645.946C1203.17,646.322 1204.48,645.622 1204.86,644.385C1205.23,643.148 1204.54,641.839 1203.3,641.463Z" style="fill:rgb(0,0,29);"/>
                    </g>
                    <g transform="matrix(1.19227,0,0,8.36982,-1125.98,-5237.13)">
                        <path d="M1203.3,641.463C1184.37,635.339 1169.05,630.065 1155.94,627.461C1142.82,624.853 1131.82,624.882 1121.81,628.812C1114.51,631.68 1107.71,636.666 1101.02,644.378C1091.7,655.11 1082.54,671.333 1072.21,694.821C1071.84,695.657 1071.81,696.606 1072.14,697.458C1072.48,698.31 1073.13,698.995 1073.97,699.361L1122.78,720.442C1123.61,720.802 1124.55,720.802 1125.37,720.442L1174.01,698.97C1175.54,698.306 1176.23,696.531 1175.57,695.009C1174.9,693.488 1173.13,692.791 1171.61,693.455L1124.09,713.942C1124.09,713.942 1079.9,694.466 1079.9,694.466C1087.59,677.56 1094.6,664.746 1101.53,655.235C1109.01,644.972 1116.33,638.7 1124.44,635.415C1133.3,631.827 1143.04,631.829 1154.77,633.82C1167.76,636.025 1183.07,640.588 1201.94,645.946C1203.17,646.322 1204.48,645.622 1204.86,644.385C1205.23,643.148 1204.54,641.839 1203.3,641.463Z" style="fill:rgb(0,0,29);"/>
                    </g>
                    <g transform="matrix(1.19227,0,0,8.36982,-1009.66,-5237.13)">
                        <path d="M1203.3,641.463C1184.37,635.339 1169.05,630.065 1155.94,627.461C1142.82,624.853 1131.82,624.882 1121.81,628.812C1114.51,631.68 1107.71,636.666 1101.02,644.378C1091.7,655.11 1082.54,671.333 1072.21,694.821C1071.84,695.657 1071.81,696.606 1072.14,697.458C1072.48,698.31 1073.13,698.995 1073.97,699.361L1122.78,720.442C1123.61,720.802 1124.55,720.802 1125.37,720.442L1174.01,698.97C1175.54,698.306 1176.23,696.531 1175.57,695.009C1174.9,693.488 1173.13,692.791 1171.61,693.455L1124.09,713.942C1124.09,713.942 1079.9,694.466 1079.9,694.466C1087.59,677.56 1094.6,664.746 1101.53,655.235C1109.01,644.972 1116.33,638.7 1124.44,635.415C1133.3,631.827 1143.04,631.829 1154.77,633.82C1167.76,636.025 1183.07,640.588 1201.94,645.946C1203.17,646.322 1204.48,645.622 1204.86,644.385C1205.23,643.148 1204.54,641.839 1203.3,641.463Z" style="fill:rgb(0,0,29);"/>
                    </g>
                    <g transform="matrix(1.19227,0,0,8.36982,-893.336,-5237.13)">
                        <path d="M1203.3,641.463C1184.37,635.339 1169.05,630.065 1155.94,627.461C1142.82,624.853 1131.82,624.882 1121.81,628.812C1114.51,631.68 1107.71,636.666 1101.02,644.378C1091.7,655.11 1082.54,671.333 1072.21,694.821C1071.84,695.657 1071.81,696.606 1072.14,697.458C1072.48,698.31 1073.13,698.995 1073.97,699.361L1122.78,720.442C1123.61,720.802 1124.55,720.802 1125.37,720.442L1174.01,698.97C1175.54,698.306 1176.23,696.531 1175.57,695.009C1174.9,693.488 1173.13,692.791 1171.61,693.455C1171.61,693.455 1131.87,710.591 1124.09,713.942C1124.09,713.942 1090.52,699.146 1079.9,694.466C1087.59,677.56 1094.6,664.746 1101.53,655.235C1109.01,644.972 1116.33,638.7 1124.44,635.415C1133.3,631.827 1143.04,631.829 1154.77,633.82C1167.76,636.025 1183.07,640.588 1201.94,645.946C1203.17,646.322 1204.48,645.622 1204.86,644.385C1205.23,643.148 1204.54,641.839 1203.3,641.463Z" style="fill:rgb(0,0,29);"/>
                    </g>
                    <g transform="matrix(1.19227,0,0,-8.36982,-1183.81,6594.19)">
                        <path d="M1201.94,645.946C1183.07,640.588 1167.76,636.025 1154.77,633.82C1143.04,631.829 1133.3,631.827 1124.44,635.415C1116.33,638.7 1109.01,644.972 1101.53,655.235C1094.6,664.746 1087.59,677.56 1079.9,694.466C1079.9,694.466 1124.09,713.942 1124.09,713.942C1124.09,713.942 1171.61,693.455 1171.61,693.455C1173.13,692.791 1174.9,693.488 1175.57,695.009C1176.23,696.531 1175.54,698.306 1174.01,698.97L1125.37,720.442C1124.55,720.802 1123.61,720.802 1122.78,720.442L1073.97,699.361C1073.13,698.995 1072.48,698.31 1072.14,697.458C1071.81,696.606 1071.84,695.657 1072.21,694.821C1082.54,671.333 1091.7,655.11 1101.02,644.378C1107.71,636.666 1114.51,631.68 1121.81,628.812C1131.82,624.882 1142.82,624.853 1155.94,627.461C1169.05,630.065 1184.37,635.339 1203.3,641.463C1204.54,641.839 1205.23,643.148 1204.86,644.385C1204.48,645.622 1203.17,646.322 1201.94,645.946Z" style="fill:rgb(0,0,29);"/>
                    </g>
                    <g transform="matrix(1.19227,0,0,-8.36982,-1067.49,6594.19)">
                        <path d="M1201.94,645.946C1183.07,640.588 1167.76,636.025 1154.77,633.82C1143.04,631.829 1133.3,631.827 1124.44,635.415C1116.33,638.7 1109.01,644.972 1101.53,655.235C1094.6,664.746 1087.59,677.56 1079.9,694.466C1089.47,698.683 1117.73,711.139 1124.09,713.942C1131.87,710.591 1171.61,693.455 1171.61,693.455C1173.13,692.791 1174.9,693.488 1175.57,695.009C1176.23,696.531 1175.54,698.306 1174.01,698.97L1125.37,720.442C1124.55,720.802 1123.61,720.802 1122.78,720.442L1073.97,699.361C1073.13,698.995 1072.48,698.31 1072.14,697.458C1071.81,696.606 1071.84,695.657 1072.21,694.821C1082.54,671.333 1091.7,655.11 1101.02,644.378C1107.71,636.666 1114.51,631.68 1121.81,628.812C1131.82,624.882 1142.82,624.853 1155.94,627.461C1169.05,630.065 1184.37,635.339 1203.3,641.463C1204.54,641.839 1205.23,643.148 1204.86,644.385C1204.48,645.622 1203.17,646.322 1201.94,645.946Z" style="fill:rgb(0,0,29);"/>
                    </g>
                    <g transform="matrix(1.19227,0,0,-8.36982,-951.168,6594.19)">
                        <path d="M1201.94,645.946C1183.07,640.588 1167.76,636.025 1154.77,633.82C1143.04,631.829 1133.3,631.827 1124.44,635.415C1116.33,638.7 1109.01,644.972 1101.53,655.235C1094.6,664.746 1087.59,677.56 1079.9,694.466C1079.9,694.466 1116.71,710.687 1124.09,713.942C1131.87,710.591 1171.61,693.455 1171.61,693.455C1173.13,692.791 1174.9,693.488 1175.57,695.009C1176.23,696.531 1175.54,698.306 1174.01,698.97L1125.37,720.442C1124.55,720.802 1123.61,720.802 1122.78,720.442L1073.97,699.361C1073.13,698.995 1072.48,698.31 1072.14,697.458C1071.81,696.606 1071.84,695.657 1072.21,694.821C1082.54,671.333 1091.7,655.11 1101.02,644.378C1107.71,636.666 1114.51,631.68 1121.81,628.812C1131.82,624.882 1142.82,624.853 1155.94,627.461C1169.05,630.065 1184.37,635.339 1203.3,641.463C1204.54,641.839 1205.23,643.148 1204.86,644.385C1204.48,645.622 1203.17,646.322 1201.94,645.946Z" style="fill:rgb(0,0,29);"/>
                    </g>
                    <g transform="matrix(1.19227,0,0,-8.36982,-834.847,6594.19)">
                        <path d="M1201.94,645.946C1183.07,640.588 1167.76,636.025 1154.77,633.82C1143.04,631.829 1133.3,631.827 1124.44,635.415C1116.33,638.7 1109.01,644.972 1101.53,655.235C1094.6,664.746 1087.59,677.56 1079.9,694.466C1079.9,694.466 1116.71,710.687 1124.09,713.942C1131.87,710.591 1171.61,693.455 1171.61,693.455C1173.13,692.791 1174.9,693.488 1175.57,695.009C1176.23,696.531 1175.54,698.306 1174.01,698.97L1125.37,720.442C1124.55,720.802 1123.61,720.802 1122.78,720.442L1073.97,699.361C1073.13,698.995 1072.48,698.31 1072.14,697.458C1071.81,696.606 1071.84,695.657 1072.21,694.821C1082.54,671.333 1091.7,655.11 1101.02,644.378C1107.71,636.666 1114.51,631.68 1121.81,628.812C1131.82,624.882 1142.82,624.853 1155.94,627.461C1169.05,630.065 1184.37,635.339 1203.3,641.463C1204.54,641.839 1205.23,643.148 1204.86,644.385C1204.48,645.622 1203.17,646.322 1201.94,645.946Z" style="fill:rgb(0,0,29);"/>
                    </g>
                    <g transform="matrix(1.19227,0,0,8.36982,-776.629,-5237.13)">
                        <path d="M1203.3,641.463C1184.37,635.339 1169.05,630.065 1155.94,627.461C1142.82,624.853 1131.82,624.882 1121.81,628.812C1114.51,631.68 1107.71,636.666 1101.02,644.378C1091.7,655.11 1082.54,671.333 1072.21,694.821C1071.84,695.657 1071.81,696.606 1072.14,697.458C1072.48,698.31 1073.13,698.995 1073.97,699.361L1122.78,720.442C1123.61,720.802 1124.55,720.802 1125.37,720.442L1174.01,698.97C1175.54,698.306 1176.23,696.531 1175.57,695.009C1174.9,693.488 1173.13,692.791 1171.61,693.455C1171.61,693.455 1131.87,710.591 1124.09,713.942C1124.09,713.942 1079.9,694.466 1079.9,694.466C1087.59,677.56 1094.6,664.746 1101.53,655.235C1109.01,644.972 1116.33,638.7 1124.44,635.415C1133.3,631.827 1143.04,631.829 1154.77,633.82C1167.76,636.025 1183.07,640.588 1201.94,645.946C1203.17,646.322 1204.48,645.622 1204.86,644.385C1205.23,643.148 1204.54,641.839 1203.3,641.463Z" style="fill:rgb(0,0,29);"/>
                    </g>
                    <g transform="matrix(1.19227,0,0,8.36982,-660.308,-5237.13)">
                        <path d="M1203.3,641.463C1184.37,635.339 1169.05,630.065 1155.94,627.461C1142.82,624.853 1131.82,624.882 1121.81,628.812C1114.51,631.68 1107.71,636.666 1101.02,644.378C1091.7,655.11 1082.54,671.333 1072.21,694.821C1071.84,695.657 1071.81,696.606 1072.14,697.458C1072.48,698.31 1073.13,698.995 1073.97,699.361L1122.78,720.442C1123.61,720.802 1124.55,720.802 1125.37,720.442L1174.01,698.97C1175.54,698.306 1176.23,696.531 1175.57,695.009C1174.9,693.488 1173.13,692.791 1171.61,693.455L1124.09,713.942C1124.09,713.942 1079.9,694.466 1079.9,694.466C1087.59,677.56 1094.6,664.746 1101.53,655.235C1109.01,644.972 1116.33,638.7 1124.44,635.415C1133.3,631.827 1143.04,631.829 1154.77,633.82C1167.76,636.025 1183.07,640.588 1201.94,645.946C1203.17,646.322 1204.48,645.622 1204.86,644.385C1205.23,643.148 1204.54,641.839 1203.3,641.463Z" style="fill:rgb(0,0,29);"/>
                    </g>
                    <g transform="matrix(1.19227,0,0,8.36982,-543.987,-5237.13)">
                        <path d="M1203.3,641.463C1184.37,635.339 1169.05,630.065 1155.94,627.461C1142.82,624.853 1131.82,624.882 1121.81,628.812C1114.51,631.68 1107.71,636.666 1101.02,644.378C1091.7,655.11 1082.54,671.333 1072.21,694.821C1071.84,695.657 1071.81,696.606 1072.14,697.458C1072.48,698.31 1073.13,698.995 1073.97,699.361L1122.78,720.442C1123.61,720.802 1124.55,720.802 1125.37,720.442L1174.01,698.97C1175.54,698.306 1176.23,696.531 1175.57,695.009C1174.9,693.488 1173.13,692.791 1171.61,693.455L1124.09,713.942C1124.09,713.942 1079.9,694.466 1079.9,694.466C1087.59,677.56 1094.6,664.746 1101.53,655.235C1109.01,644.972 1116.33,638.7 1124.44,635.415C1133.3,631.827 1143.04,631.829 1154.77,633.82C1167.76,636.025 1183.07,640.588 1201.94,645.946C1203.17,646.322 1204.48,645.622 1204.86,644.385C1205.23,643.148 1204.54,641.839 1203.3,641.463Z" style="fill:rgb(0,0,29);"/>
                    </g>
                    <g transform="matrix(1.19227,0,0,8.36982,-427.665,-5237.13)">
                        <path d="M1203.3,641.463C1184.37,635.339 1169.05,630.065 1155.94,627.461C1142.82,624.853 1131.82,624.882 1121.81,628.812C1114.51,631.68 1107.71,636.666 1101.02,644.378C1091.7,655.11 1082.54,671.333 1072.21,694.821C1071.84,695.657 1071.81,696.606 1072.14,697.458C1072.48,698.31 1073.13,698.995 1073.97,699.361L1122.78,720.442C1123.61,720.802 1124.55,720.802 1125.37,720.442L1174.01,698.97C1175.54,698.306 1176.23,696.531 1175.57,695.009C1174.9,693.488 1173.13,692.791 1171.61,693.455L1124.09,713.942C1124.09,713.942 1090.52,699.146 1079.9,694.466C1087.59,677.56 1094.6,664.746 1101.53,655.235C1109.01,644.972 1116.33,638.7 1124.44,635.415C1133.3,631.827 1143.04,631.829 1154.77,633.82C1167.76,636.025 1183.07,640.588 1201.94,645.946C1203.17,646.322 1204.48,645.622 1204.86,644.385C1205.23,643.148 1204.54,641.839 1203.3,641.463Z" style="fill:rgb(0,0,29);"/>
                    </g>
                    <g transform="matrix(1.19227,0,0,-8.36982,-718.14,6594.19)">
                        <path d="M1201.94,645.946C1183.07,640.588 1167.76,636.025 1154.77,633.82C1143.04,631.829 1133.3,631.827 1124.44,635.415C1116.33,638.7 1109.01,644.972 1101.53,655.235C1094.6,664.746 1087.59,677.56 1079.9,694.466C1089.47,698.683 1117.73,711.139 1124.09,713.942C1131.87,710.591 1171.61,693.455 1171.61,693.455C1173.13,692.791 1174.9,693.488 1175.57,695.009C1176.23,696.531 1175.54,698.306 1174.01,698.97L1125.37,720.442C1124.55,720.802 1123.61,720.802 1122.78,720.442L1073.97,699.361C1073.13,698.995 1072.48,698.31 1072.14,697.458C1071.81,696.606 1071.84,695.657 1072.21,694.821C1082.54,671.333 1091.7,655.11 1101.02,644.378C1107.71,636.666 1114.51,631.68 1121.81,628.812C1131.82,624.882 1142.82,624.853 1155.94,627.461C1169.05,630.065 1184.37,635.339 1203.3,641.463C1204.54,641.839 1205.23,643.148 1204.86,644.385C1204.48,645.622 1203.17,646.322 1201.94,645.946Z" style="fill:rgb(0,0,29);"/>
                    </g>
                    <g transform="matrix(1.19227,0,0,-8.36982,-601.819,6594.19)">
                        <path d="M1201.94,645.946C1183.07,640.588 1167.76,636.025 1154.77,633.82C1143.04,631.829 1133.3,631.827 1124.44,635.415C1116.33,638.7 1109.01,644.972 1101.53,655.235C1094.6,664.746 1087.59,677.56 1079.9,694.466C1079.9,694.466 1124.09,713.942 1124.09,713.942C1124.09,713.942 1171.61,693.455 1171.61,693.455C1173.13,692.791 1174.9,693.488 1175.57,695.009C1176.23,696.531 1175.54,698.306 1174.01,698.97L1125.37,720.442C1124.55,720.802 1123.61,720.802 1122.78,720.442L1073.97,699.361C1073.13,698.995 1072.48,698.31 1072.14,697.458C1071.81,696.606 1071.84,695.657 1072.21,694.821C1082.54,671.333 1091.7,655.11 1101.02,644.378C1107.71,636.666 1114.51,631.68 1121.81,628.812C1131.82,624.882 1142.82,624.853 1155.94,627.461C1169.05,630.065 1184.37,635.339 1203.3,641.463C1204.54,641.839 1205.23,643.148 1204.86,644.385C1204.48,645.622 1203.17,646.322 1201.94,645.946Z" style="fill:rgb(0,0,29);"/>
                    </g>
                    <g transform="matrix(1.19227,0,0,-8.36982,-485.498,6594.19)">
                        <path d="M1201.94,645.946C1183.07,640.588 1167.76,636.025 1154.77,633.82C1143.04,631.829 1133.3,631.827 1124.44,635.415C1116.33,638.7 1109.01,644.972 1101.53,655.235C1094.6,664.746 1087.59,677.56 1079.9,694.466C1079.9,694.466 1124.09,713.942 1124.09,713.942C1124.09,713.942 1171.61,693.455 1171.61,693.455C1173.13,692.791 1174.9,693.488 1175.57,695.009C1176.23,696.531 1175.54,698.306 1174.01,698.97L1125.37,720.442C1124.55,720.802 1123.61,720.802 1122.78,720.442L1073.97,699.361C1073.13,698.995 1072.48,698.31 1072.14,697.458C1071.81,696.606 1071.84,695.657 1072.21,694.821C1082.54,671.333 1091.7,655.11 1101.02,644.378C1107.71,636.666 1114.51,631.68 1121.81,628.812C1131.82,624.882 1142.82,624.853 1155.94,627.461C1169.05,630.065 1184.37,635.339 1203.3,641.463C1204.54,641.839 1205.23,643.148 1204.86,644.385C1204.48,645.622 1203.17,646.322 1201.94,645.946Z" style="fill:rgb(0,0,29);"/>
                    </g>
                    <g transform="matrix(1.19227,0,0,-8.36982,-369.176,6594.19)">
                        <path d="M1201.94,645.946C1183.07,640.588 1167.76,636.025 1154.77,633.82C1143.04,631.829 1133.3,631.827 1124.44,635.415C1116.33,638.7 1109.01,644.972 1101.53,655.235C1094.6,664.746 1087.59,677.56 1079.9,694.466C1079.9,694.466 1116.71,710.687 1124.09,713.942C1124.09,713.942 1171.61,693.455 1171.61,693.455C1173.13,692.791 1174.9,693.488 1175.57,695.009C1176.23,696.531 1175.54,698.306 1174.01,698.97L1125.37,720.442C1124.55,720.802 1123.61,720.802 1122.78,720.442L1073.97,699.361C1073.13,698.995 1072.48,698.31 1072.14,697.458C1071.81,696.606 1071.84,695.657 1072.21,694.821C1082.54,671.333 1091.7,655.11 1101.02,644.378C1107.71,636.666 1114.51,631.68 1121.81,628.812C1131.82,624.882 1142.82,624.853 1155.94,627.461C1169.05,630.065 1184.37,635.339 1203.3,641.463C1204.54,641.839 1205.23,643.148 1204.86,644.385C1204.48,645.622 1203.17,646.322 1201.94,645.946Z" style="fill:rgb(0,0,29);"/>
                    </g>
                    <g transform="matrix(1.19227,0,0,8.36982,-310.959,-5237.13)">
                        <path d="M1203.3,641.463C1184.37,635.339 1169.05,630.065 1155.94,627.461C1142.82,624.853 1131.82,624.882 1121.81,628.812C1114.51,631.68 1107.71,636.666 1101.02,644.378C1091.7,655.11 1082.54,671.333 1072.21,694.821C1071.84,695.657 1071.81,696.606 1072.14,697.458C1072.48,698.31 1073.13,698.995 1073.97,699.361L1122.78,720.442C1123.61,720.802 1124.55,720.802 1125.37,720.442L1174.01,698.97C1175.54,698.306 1176.23,696.531 1175.57,695.009C1174.9,693.488 1173.13,692.791 1171.61,693.455L1124.09,713.942C1117.73,711.139 1089.47,698.683 1079.9,694.466C1087.59,677.56 1094.6,664.746 1101.53,655.235C1109.01,644.972 1116.33,638.7 1124.44,635.415C1133.3,631.827 1143.04,631.829 1154.77,633.82C1167.76,636.025 1183.07,640.588 1201.94,645.946C1203.17,646.322 1204.48,645.622 1204.86,644.385C1205.23,643.148 1204.54,641.839 1203.3,641.463Z" style="fill:rgb(0,0,29);"/>
                    </g>
                    <g transform="matrix(1.19227,0,0,8.36982,-194.637,-5237.13)">
                        <path d="M1203.3,641.463C1184.37,635.339 1169.05,630.065 1155.94,627.461C1142.82,624.853 1131.82,624.882 1121.81,628.812C1114.51,631.68 1107.71,636.666 1101.02,644.378C1091.7,655.11 1082.54,671.333 1072.21,694.821C1071.84,695.657 1071.81,696.606 1072.14,697.458C1072.48,698.31 1073.13,698.995 1073.97,699.361L1122.78,720.442C1123.61,720.802 1124.55,720.802 1125.37,720.442L1174.01,698.97C1175.54,698.306 1176.23,696.531 1175.57,695.009C1174.9,693.488 1173.13,692.791 1171.61,693.455C1171.61,693.455 1131.87,710.591 1124.09,713.942C1124.09,713.942 1079.9,694.466 1079.9,694.466C1087.59,677.56 1094.6,664.746 1101.53,655.235C1109.01,644.972 1116.33,638.7 1124.44,635.415C1133.3,631.827 1143.04,631.829 1154.77,633.82C1167.76,636.025 1183.07,640.588 1201.94,645.946C1203.17,646.322 1204.48,645.622 1204.86,644.385C1205.23,643.148 1204.54,641.839 1203.3,641.463Z" style="fill:rgb(0,0,29);"/>
                    </g>
                    <g transform="matrix(1.19227,0,0,8.36982,-78.3159,-5237.13)">
                        <path d="M1203.3,641.463C1184.37,635.339 1169.05,630.065 1155.94,627.461C1142.82,624.853 1131.82,624.882 1121.81,628.812C1114.51,631.68 1107.71,636.666 1101.02,644.378C1091.7,655.11 1082.54,671.333 1072.21,694.821C1071.84,695.657 1071.81,696.606 1072.14,697.458C1072.48,698.31 1073.13,698.995 1073.97,699.361L1122.78,720.442C1123.61,720.802 1124.55,720.802 1125.37,720.442L1174.01,698.97C1175.54,698.306 1176.23,696.531 1175.57,695.009C1174.9,693.488 1173.13,692.791 1171.61,693.455L1124.09,713.942C1117.73,711.139 1089.47,698.683 1079.9,694.466C1087.59,677.56 1094.6,664.746 1101.53,655.235C1109.01,644.972 1116.33,638.7 1124.44,635.415C1133.3,631.827 1143.04,631.829 1154.77,633.82C1167.76,636.025 1183.07,640.588 1201.94,645.946C1203.17,646.322 1204.48,645.622 1204.86,644.385C1205.23,643.148 1204.54,641.839 1203.3,641.463Z" style="fill:rgb(0,0,29);"/>
                    </g>
                    <g transform="matrix(1.19227,0,0,8.36982,38.0055,-5237.13)">
                        <path d="M1203.3,641.463C1184.37,635.339 1169.05,630.065 1155.94,627.461C1142.82,624.853 1131.82,624.882 1121.81,628.812C1114.51,631.68 1107.71,636.666 1101.02,644.378C1091.7,655.11 1082.54,671.333 1072.21,694.821C1071.84,695.657 1071.81,696.606 1072.14,697.458C1072.48,698.31 1073.13,698.995 1073.97,699.361L1122.78,720.442C1123.61,720.802 1124.55,720.802 1125.37,720.442L1174.01,698.97C1175.54,698.306 1176.23,696.531 1175.57,695.009C1174.9,693.488 1173.13,692.791 1171.61,693.455C1171.61,693.455 1131.87,710.591 1124.09,713.942C1124.09,713.942 1090.52,699.146 1079.9,694.466C1087.59,677.56 1094.6,664.746 1101.53,655.235C1109.01,644.972 1116.33,638.7 1124.44,635.415C1133.3,631.827 1143.04,631.829 1154.77,633.82C1167.76,636.025 1183.07,640.588 1201.94,645.946C1203.17,646.322 1204.48,645.622 1204.86,644.385C1205.23,643.148 1204.54,641.839 1203.3,641.463Z" style="fill:rgb(0,0,29);"/>
                    </g>
                    <g transform="matrix(1.19227,0,0,-8.36982,-252.47,6594.19)">
                        <path d="M1201.94,645.946C1183.07,640.588 1167.76,636.025 1154.77,633.82C1143.04,631.829 1133.3,631.827 1124.44,635.415C1116.33,638.7 1109.01,644.972 1101.53,655.235C1094.6,664.746 1087.59,677.56 1079.9,694.466C1089.47,698.683 1117.73,711.139 1124.09,713.942C1124.09,713.942 1171.61,693.455 1171.61,693.455C1173.13,692.791 1174.9,693.488 1175.57,695.009C1176.23,696.531 1175.54,698.306 1174.01,698.97L1125.37,720.442C1124.55,720.802 1123.61,720.802 1122.78,720.442L1073.97,699.361C1073.13,698.995 1072.48,698.31 1072.14,697.458C1071.81,696.606 1071.84,695.657 1072.21,694.821C1082.54,671.333 1091.7,655.11 1101.02,644.378C1107.71,636.666 1114.51,631.68 1121.81,628.812C1131.82,624.882 1142.82,624.853 1155.94,627.461C1169.05,630.065 1184.37,635.339 1203.3,641.463C1204.54,641.839 1205.23,643.148 1204.86,644.385C1204.48,645.622 1203.17,646.322 1201.94,645.946Z" style="fill:rgb(0,0,29);"/>
                    </g>
                    <g transform="matrix(1.19227,0,0,-8.36982,-136.148,6594.19)">
                        <path d="M1201.94,645.946C1183.07,640.588 1167.76,636.025 1154.77,633.82C1143.04,631.829 1133.3,631.827 1124.44,635.415C1116.33,638.7 1109.01,644.972 1101.53,655.235C1094.6,664.746 1087.59,677.56 1079.9,694.466C1079.9,694.466 1124.09,713.942 1124.09,713.942C1131.87,710.591 1171.61,693.455 1171.61,693.455C1173.13,692.791 1174.9,693.488 1175.57,695.009C1176.23,696.531 1175.54,698.306 1174.01,698.97L1125.37,720.442C1124.55,720.802 1123.61,720.802 1122.78,720.442L1073.97,699.361C1073.13,698.995 1072.48,698.31 1072.14,697.458C1071.81,696.606 1071.84,695.657 1072.21,694.821C1082.54,671.333 1091.7,655.11 1101.02,644.378C1107.71,636.666 1114.51,631.68 1121.81,628.812C1131.82,624.882 1142.82,624.853 1155.94,627.461C1169.05,630.065 1184.37,635.339 1203.3,641.463C1204.54,641.839 1205.23,643.148 1204.86,644.385C1204.48,645.622 1203.17,646.322 1201.94,645.946Z" style="fill:rgb(0,0,29);"/>
                    </g>
                    <g transform="matrix(1.19227,0,0,-8.36982,-19.827,6594.19)">
                        <path d="M1201.94,645.946C1183.07,640.588 1167.76,636.025 1154.77,633.82C1143.04,631.829 1133.3,631.827 1124.44,635.415C1116.33,638.7 1109.01,644.972 1101.53,655.235C1094.6,664.746 1087.59,677.56 1079.9,694.466C1089.47,698.683 1117.73,711.139 1124.09,713.942C1124.09,713.942 1171.61,693.455 1171.61,693.455C1173.13,692.791 1174.9,693.488 1175.57,695.009C1176.23,696.531 1175.54,698.306 1174.01,698.97L1125.37,720.442C1124.55,720.802 1123.61,720.802 1122.78,720.442L1073.97,699.361C1073.13,698.995 1072.48,698.31 1072.14,697.458C1071.81,696.606 1071.84,695.657 1072.21,694.821C1082.54,671.333 1091.7,655.11 1101.02,644.378C1107.71,636.666 1114.51,631.68 1121.81,628.812C1131.82,624.882 1142.82,624.853 1155.94,627.461C1169.05,630.065 1184.37,635.339 1203.3,641.463C1204.54,641.839 1205.23,643.148 1204.86,644.385C1204.48,645.622 1203.17,646.322 1201.94,645.946Z" style="fill:rgb(0,0,29);"/>
                    </g>
                    <g transform="matrix(1.19227,0,0,-8.36982,96.4944,6594.19)">
                        <path d="M1201.94,645.946C1183.07,640.588 1167.76,636.025 1154.77,633.82C1143.04,631.829 1133.3,631.827 1124.44,635.415C1116.33,638.7 1109.01,644.972 1101.53,655.235C1094.6,664.746 1087.59,677.56 1079.9,694.466C1079.9,694.466 1116.71,710.687 1124.09,713.942C1124.09,713.942 1171.61,693.455 1171.61,693.455C1173.13,692.791 1174.9,693.488 1175.57,695.009C1176.23,696.531 1175.54,698.306 1174.01,698.97L1125.37,720.442C1124.55,720.802 1123.61,720.802 1122.78,720.442L1073.97,699.361C1073.13,698.995 1072.48,698.31 1072.14,697.458C1071.81,696.606 1071.84,695.657 1072.21,694.821C1082.54,671.333 1091.7,655.11 1101.02,644.378C1107.71,636.666 1114.51,631.68 1121.81,628.812C1131.82,624.882 1142.82,624.853 1155.94,627.461C1169.05,630.065 1184.37,635.339 1203.3,641.463C1204.54,641.839 1205.23,643.148 1204.86,644.385C1204.48,645.622 1203.17,646.322 1201.94,645.946Z" style="fill:rgb(0,0,29);"/>
                    </g>
                    <g transform="matrix(1.19227,0,0,8.36982,154.712,-5237.13)">
                        <path d="M1203.3,641.463C1184.37,635.339 1169.05,630.065 1155.94,627.461C1142.82,624.853 1131.82,624.882 1121.81,628.812C1114.51,631.68 1107.71,636.666 1101.02,644.378C1091.7,655.11 1082.54,671.333 1072.21,694.821C1071.84,695.657 1071.81,696.606 1072.14,697.458C1072.48,698.31 1073.13,698.995 1073.97,699.361L1122.78,720.442C1123.61,720.802 1124.55,720.802 1125.37,720.442L1174.01,698.97C1175.54,698.306 1176.23,696.531 1175.57,695.009C1174.9,693.488 1173.13,692.791 1171.61,693.455C1171.61,693.455 1131.87,710.591 1124.09,713.942C1124.09,713.942 1079.9,694.466 1079.9,694.466C1087.59,677.56 1094.6,664.746 1101.53,655.235C1109.01,644.972 1116.33,638.7 1124.44,635.415C1133.3,631.827 1143.04,631.829 1154.77,633.82C1167.76,636.025 1183.07,640.588 1201.94,645.946C1203.17,646.322 1204.48,645.622 1204.86,644.385C1205.23,643.148 1204.54,641.839 1203.3,641.463Z" style="fill:rgb(0,0,29);"/>
                    </g>
                    <g transform="matrix(1.19227,0,0,-8.36982,213.201,6594.19)">
                        <path d="M1201.94,645.946C1183.07,640.588 1167.76,636.025 1154.77,633.82C1143.04,631.829 1133.3,631.827 1124.44,635.415C1116.33,638.7 1109.01,644.972 1101.53,655.235C1094.6,664.746 1087.59,677.56 1079.9,694.466C1089.47,698.683 1117.73,711.139 1124.09,713.942C1131.87,710.591 1171.61,693.455 1171.61,693.455C1173.13,692.791 1174.9,693.488 1175.57,695.009C1176.23,696.531 1175.54,698.306 1174.01,698.97L1125.37,720.442C1124.55,720.802 1123.61,720.802 1122.78,720.442L1073.97,699.361C1073.13,698.995 1072.48,698.31 1072.14,697.458C1071.81,696.606 1071.84,695.657 1072.21,694.821C1082.54,671.333 1091.7,655.11 1101.02,644.378C1107.71,636.666 1114.51,631.68 1121.81,628.812C1131.82,624.882 1142.82,624.853 1155.94,627.461C1169.05,630.065 1184.37,635.339 1203.3,641.463C1204.54,641.839 1205.23,643.148 1204.86,644.385C1204.48,645.622 1203.17,646.322 1201.94,645.946Z" style="fill:rgb(0,0,29);"/>
                    </g>
                </g>
                <g transform="matrix(0.698154,0,0,1.11708,2728.34,241.741)">
                    <path d="M781.269,4945.85C1194.96,4586.25 1384.97,4852.7 1039.34,5409.34C922.727,5597.14 777.284,5848.92 690.382,5949.14C488.02,6182.52 693.063,6306.8 891.215,6054.93C1106.84,5780.86 1401.85,5344.99 1426.69,5011.1C1452.48,4664.44 1247.67,4457.49 781.269,4945.85ZM1830.11,5080.83C1827.05,4921.4 1825.43,4798.44 1826.05,4790.86L1826.12,4790.49C1826.09,4790.48 1826.07,4790.6 1826.05,4790.86C1822.22,4811.2 1663.88,5652.59 1620.69,5816.03C1578.94,5973.98 1867.79,5962.15 1854.03,5819.14C1844.89,5724.06 1836.04,5379.54 1830.78,5115.15C1962.77,4999.14 2197.19,4928.14 2327.43,4961.13C2362.97,4970.13 2449.34,4940.72 2465.76,4906.5C2531.82,4768.74 2252.72,4584.31 1985.51,4911.6C1932.2,4976.9 1897.86,4980.52 1830.11,5080.83ZM2824.96,5676.23C2834.69,5508.61 3066.24,5122.96 3056.69,5032.34C3046.32,4933.89 2814.97,4932.43 2669.92,4986.69C2650.68,4993.89 2632.95,5002.07 2617.47,5011.14C2632.41,4999.6 2648.39,4989.22 2665.15,4979.92C2796.57,4906.97 2975.92,4900.39 3079.29,4926.31C3197.09,4955.85 3302.02,5088.91 3211.01,5262.34C3171.11,5338.37 3101.24,5457.47 3087.06,5590.56C3084.56,5614.07 3097.16,5629.82 3113.92,5646.83C3173.8,5707.64 3164.45,5814.72 3095.66,5853.05C3092.91,5854.58 3089.44,5855.71 3085.33,5856.46C3044.7,5898.32 2954.71,5835.14 2865.87,5874.31C2653.87,5967.77 2472.17,5870.1 2421.35,5732.03C2307.61,5422.98 2819.82,5200.28 2944.41,5324.3C2758.19,5246.65 2429.83,5426.66 2563.27,5632.34C2607.07,5699.83 2723.24,5696.72 2824.96,5676.23ZM423.01,3121.66C552.868,3647.27 520.239,5411.22 552.927,5772.88C563.773,5892.88 750.354,5890.78 751.891,5761.38C755.193,5483.42 775,4743.4 710.544,4081.75C673.334,3699.78 567.488,3351.76 423.01,3121.66ZM4885.53,5564.72C4813.56,5483.26 4750.99,5372.35 4742.74,5312.27C4685.47,4895.44 4728.38,4711.74 4745.34,4393.95C4759.14,4135.57 5003.58,3528 5003.58,3528C5003.58,3528 4905.86,4226.31 4917.73,4765.7C4924.5,5073.01 4950.6,5360.31 5062.04,5425.13C5202.67,5506.92 5140.99,5625.11 5059.68,5660.19C5049.7,5664.49 5038.83,5665.74 5027.32,5664.39C5038.71,5709.48 5029.16,5758.74 5005.52,5786.35C4891.43,5919.64 4152.09,5874.04 4071.68,5570.89C4028.69,5408.77 4257.42,5141.73 4345.96,5053.78C4549.64,4851.45 4759,4927.72 4635.12,4991.04C4699.69,4913.11 4510.81,4937.25 4357.51,5148.98C4304.08,5222.76 4233.74,5356.31 4290.11,5492.89C4332.5,5595.57 4618.82,5661.29 4730.71,5608.08C4793.05,5578.43 4844.21,5565.66 4885.53,5564.72ZM3605.5,5093.61C3546.03,5253.98 3510.68,5463.2 3482.28,5539.92C3459.47,5601.54 3473.65,5592.81 3514.32,5584.54C3548.52,5577.59 3673.67,5567.64 3730.1,5512.69C3791.5,5452.91 3874.89,5413.93 3924.28,5525.1C3948.31,5579.18 3917.65,5694.62 3806.74,5728.34C3726.86,5752.63 3428.1,5835.68 3374.39,5687.85C3336.23,5582.81 3496.62,5275.92 3605.5,5093.61ZM3526.68,4709.61C3611.9,4645.41 3710.26,4608.04 3778.82,4664.23C3859.99,4730.75 3832.51,4851.06 3774.74,4911.86C3726.19,4962.97 3644.69,5016.74 3524.33,4947.02C3453.32,4905.89 3451.88,4765.96 3526.68,4709.61Z" style="fill:rgb(255,0,0);stroke:rgb(255,0,0);stroke-width:79.8px;"/>
                </g>
                <g transform="matrix(0.882434,0,0,2.49844,-4866.9,-14368.3)">
                    <text x="9296.81px" y="7855.82px" style="font-family:'Copperplate-Bold', 'Copperplate';font-weight:700;font-size:1070.1px;">MPST</text>
                </g>
                <g transform="matrix(0.759904,0,0,1.29381,-89.6643,-757.315)">
                    <rect x="9018.47" y="5685.24" width="2741.15" height="1165.05" style="fill:white;"/>
                </g>
                <g transform="matrix(0.744465,0,0,1.29381,-469.599,-757.315)">
                    <rect x="3005.52" y="5652.28" width="1423.96" height="1045" style="fill:white;"/>
                </g>
                <g transform="matrix(0.742086,0,0,1.14549,-52.1922,-160.98)">
                    <rect x="3882.32" y="3085.47" width="5290.62" height="4019.85" style="fill:none;stroke:black;stroke-width:22.32px;"/>
                </g>
            </g>
        </g>
    </g>
</svg>
