<?xml version="1.0" encoding="UTF-8" standalone="no"?>
<!DOCTYPE svg PUBLIC "-//W3C//DTD SVG 1.1//EN" "http://www.w3.org/Graphics/SVG/1.1/DTD/svg11.dtd">
<svg width="100%" height="100%" viewBox="0 0 888 903" version="1.1" xmlns="http://www.w3.org/2000/svg" xmlns:xlink="http://www.w3.org/1999/xlink" xml:space="preserve" xmlns:serif="http://www.serif.com/" style="fill-rule:evenodd;clip-rule:evenodd;stroke-linejoin:round;stroke-miterlimit:2;">
    <g transform="matrix(1,0,0,1,-81.6535,-29.218)">
        <g transform="matrix(0.997006,0,0,1.05333,0.244462,-49.6726)">
            <rect x="81.653" y="74.896" width="890.117" height="856.445" style="fill:white;"/>
        </g>
        <g transform="matrix(0.98766,0,0,0.926053,1.79376,23.6935)">
            <path d="M696.544,410.633C680.899,317.77 605.5,307.146 528.516,298.704C424.943,299.152 365.077,335.236 352.657,410.001L352.657,499.341C353.508,525.631 366.456,541.127 396.48,541.386L642.951,541.386C681.49,542.601 696.082,524.144 696.544,494.08L696.544,410.633Z" style="fill:rgb(133,29,35);"/>
        </g>
        <path d="M836.393,274.003C826.61,200.717 788.537,142.473 725.929,97.275C718.779,142.711 693.556,182.083 647.031,214.307C615.986,233.671 601.188,232.874 607.444,205.95C621.475,167.342 627.671,126.948 659.498,91.684C658.078,64.792 640.431,60.933 605.88,81.071L488.223,221.871C445.599,236.25 429.819,213.348 429.273,169.29C424.422,141.321 446.049,104.182 479.589,62.917C358.061,54.331 232.616,157.406 230.374,295.784L230.374,423.24C235.324,495.72 268.128,551.958 375.529,564.698L701.838,564.698C787.441,551.696 831.857,501.27 836.393,414.607L836.393,274.003ZM701.994,403.331C685.427,311.13 605.586,300.582 524.066,292.2C414.392,292.645 350.999,328.471 337.846,402.704L337.846,491.406C338.748,517.508 352.459,532.894 384.252,533.151L645.244,533.151C686.054,534.357 701.505,516.032 701.994,486.182L701.994,403.331Z" style="fill:rgb(224,80,48);"/>
        <g transform="matrix(2.14454,0,0,2.6963,-542.736,-253.934)">
            <path d="M528.894,125.349C529.02,124.313 527.366,123.512 526.383,122.766C515.68,114.645 494.163,110.885 484.605,118.687C476.948,124.937 465.641,133.722 459.994,141.142C454.515,148.341 455.402,161.334 456.471,166.45C458.574,176.51 474.789,179.049 484.489,169.993C494.041,161.074 513.105,144.124 525.87,129.956C526.874,128.842 528.768,126.385 528.894,125.349Z" style="fill:rgb(249,223,143);"/>
        </g>
        <path d="M716.866,108.914C720.674,96.606 690.594,83.057 663.532,98.699C649.857,106.603 613.743,196.494 611.606,209.199C608.195,229.476 626.747,221.3 656.662,200.376C672.91,189.011 707.488,139.226 716.866,108.914Z" style="fill:rgb(250,223,144);"/>
        <g transform="matrix(2.58593,0,0,2.58593,-822.713,-994.486)">
            <text x="376.661px" y="729.827px" style="font-family:'Impact', sans-serif;font-stretch:condensed;font-size:144px;fill:rgb(0,0,39);">OVEN</text>
        </g>
    </g>
</svg>
